<svg width="34" height="46" viewBox="0 0 34 46" fill="none" xmlns="http://www.w3.org/2000/svg">
<path d="M34 17.25C34 25.2461 23.2865 38.6328 18.8594 43.8438C17.7083 45.2812 17 46 17 46C17 46 16.2031 45.2812 15.0521 43.8438C10.625 38.6328 0 25.2461 0 17.25C0 7.72656 7.61458 0 17 0C26.3854 0 34 7.72656 34 17.25Z" fill="#AFAB91"/>
<path d="M15.1415 14.4283C12.617 15.9772 8.75528 21.5049 8.48481 24.1473C14.9611 23.3425 13.3533 19.0448 15.1415 14.4283Z" fill="white"/>
<path d="M12.6331 25.3773C17.1109 21.6567 13.4896 14.2308 21.138 12.4692C17.727 15.9924 18.1778 23.8739 12.6331 25.3773Z" fill="white"/>
<path d="M17.0075 25.9848C16.5718 25.9848 16.136 25.9544 15.7002 25.8937C16.4215 25.3622 17.263 24.4662 17.9391 22.978C18.45 21.8694 18.7055 21.1101 18.9459 20.3964C19.0811 20.0167 19.1863 19.6826 19.3216 19.3333L19.3967 19.1359C19.8024 18.0425 19.9827 17.5566 20.5387 16.3872C21.2299 14.9598 22.3719 13.2285 22.3719 13.2134L24.731 9.67502C26.1435 11.4062 27 13.6082 27 16.0076C27 21.5201 22.5222 26 17.0075 26V25.9848ZM8.142 20.6241C7.39068 19.1967 7 17.6173 7 15.9924C7 10.4799 11.4929 6 17.0075 6C20.0278 6 22.7476 7.35156 24.5808 9.4776L20.6739 11.0569C20.6739 11.0569 19.9827 11.3303 19.0511 11.8314L20.4335 9.11313L15.4298 12.4237C15.2795 12.53 11.7333 14.8838 9.46431 18.3918C8.93839 19.2118 8.50263 19.956 8.15702 20.609L8.142 20.6241Z" fill="white"/>
</svg>
